<svg xmlns="http://www.w3.org/2000/svg" width="1400" height="600" viewBox="0 0 1400 600">
  <defs><style>.h{font:800 24px Arial;fill:#14213d}.p{font:17px Arial;fill:#53627c}.b{fill:#fff;stroke:#bdcce6;stroke-width:3}.g{fill:#eefaf7;stroke:#68c2ab}.v{fill:#f5f1ff;stroke:#9880e8}.a{stroke:#657897;stroke-width:4;fill:none;marker-end:url(#m)}</style><marker id="m" markerWidth="10" markerHeight="10" refX="8" refY="3" orient="auto"><path d="M0,0 L0,6 L9,3 z" fill="#657897"/></marker></defs>
  <rect width="1400" height="600" rx="28" fill="#f8faff"/>
  <g transform="translate(40 200)"><rect class="b" width="210" height="130" rx="16"/><text class="h" x="28" y="48">Angular UI</text><text class="p" x="28" y="82">autocomplete</text><text class="p" x="28" y="108">preferences</text></g>
  <g transform="translate(300 200)"><rect class="b" width="220" height="130" rx="16"/><text class="h" x="28" y="48">Location Gateway</text><text class="p" x="28" y="82">browser contract</text><text class="p" x="28" y="108">rate/error mapping</text></g>
  <g transform="translate(580 175)"><rect class="v" width="260" height="180" rx="16"/><text class="h" x="28" y="48">Location Service</text><text class="p" x="28" y="82">provider selection</text><text class="p" x="28" y="108">canonical rules</text><text class="p" x="28" y="134">transient sessions</text><text class="p" x="28" y="160">route matrix bounds</text></g>
  <path class="a" d="M250 265 H295"/><path class="a" d="M520 265 H575"/>
  <g transform="translate(930 70)"><rect class="g" width="270" height="140" rx="16"/><text class="h" x="28" y="48">Postcodes.io Gateway</text><text class="p" x="28" y="82">persistable UK canonical fields</text><text class="p" x="28" y="110">fixture or public live API</text></g>
  <g transform="translate(930 320)"><rect class="g" width="270" height="140" rx="16"/><text class="h" x="28" y="48">Google Maps Gateway</text><text class="p" x="28" y="82">key + provider DTO isolation</text><text class="p" x="28" y="110">Places · Routes · attribution</text></g>
  <path class="a" d="M840 235 H885 V140 H925"/><path class="a" d="M840 295 H885 V390 H925"/>
  <g transform="translate(1040 500)"><rect class="b" width="300" height="70" rx="16"/><text class="p" x="22" y="43">route estimates remain transient/advisory</text></g>
</svg>
